HIERARCHY
ROOT joint_Root
{
	OFFSET 0.0 0.0 0.0
	CHANNELS 6 Xposition Yposition Zposition Zrotation Xrotation Yrotation 
	JOINT Hips
	{
		OFFSET 4.5925 91.4895 -427.239
		CHANNELS 6 Xposition Yposition Zposition Zrotation Xrotation Yrotation 
		JOINT Spine
		{
			OFFSET 15.7357 0.0 0.0
			CHANNELS 6 Xposition Yposition Zposition Zrotation Xrotation Yrotation 
			JOINT Chest
			{
				OFFSET 8.98455 -0.406207 0.0
				CHANNELS 6 Xposition Yposition Zposition Zrotation Xrotation Yrotation 
				JOINT Neck
				{
					OFFSET 16.3773 0.0 0.0
					CHANNELS 6 Xposition Yposition Zposition Zrotation Xrotation Yrotation 
					JOINT Head
					{
						OFFSET 6.45672 0.0 0.0
						CHANNELS 6 Xposition Yposition Zposition Zrotation Xrotation Yrotation 
						End Site
						{
							OFFSET 0.0 0.0 0.0
						}
					}
				}
				JOINT Shoulder_L
				{
					OFFSET 12.9942 -0.242716 4.98039
					CHANNELS 6 Xposition Yposition Zposition Zrotation Xrotation Yrotation 
					JOINT UpperArm_L
					{
						OFFSET 5.34809 0.0 0.0
						CHANNELS 6 Xposition Yposition Zposition Zrotation Xrotation Yrotation 
						JOINT LowerArm_L
						{
							OFFSET 24.3286 1.87007e-05 0.0
							CHANNELS 6 Xposition Yposition Zposition Zrotation Xrotation Yrotation 
							JOINT Hand_L
							{
								OFFSET 22.2916 0.0 0.0
								CHANNELS 6 Xposition Yposition Zposition Zrotation Xrotation Yrotation 
								End Site
								{
									OFFSET 0.0 0.0 0.0
								}
							}
						}
					}
				}
				JOINT Shoulder_R
				{
					OFFSET 12.9945 -0.242716 -4.98039
					CHANNELS 6 Xposition Yposition Zposition Zrotation Xrotation Yrotation 
					JOINT UpperArm_R
					{
						OFFSET -5.34813 0.0 0.0
						CHANNELS 6 Xposition Yposition Zposition Zrotation Xrotation Yrotation 
						JOINT LowerArm_R
						{
							OFFSET -24.3289 0.000322201 0.0
							CHANNELS 6 Xposition Yposition Zposition Zrotation Xrotation Yrotation 
							JOINT Hand_R
							{
								OFFSET -22.2915 -0.000108084 0.0
								CHANNELS 6 Xposition Yposition Zposition Zrotation Xrotation Yrotation 
								End Site
								{
									OFFSET 0.0 0.0 0.0
								}
							}
						}
					}
				}
			}
		}
		JOINT UpperLeg_L
		{
			OFFSET -2.19248 -6.46944 0.0
			CHANNELS 6 Xposition Yposition Zposition Zrotation Xrotation Yrotation 
			JOINT LowerLeg_L
			{
				OFFSET 39.0811 0.0 -1.23785e-05
				CHANNELS 6 Xposition Yposition Zposition Zrotation Xrotation Yrotation 
				JOINT Foot_L
				{
					OFFSET 40.9854 0.0 -1.26872e-05
					CHANNELS 6 Xposition Yposition Zposition Zrotation Xrotation Yrotation 
					JOINT Toes_L
					{
						OFFSET 11.7543 0.0 0.0
						CHANNELS 6 Xposition Yposition Zposition Zrotation Xrotation Yrotation 
						End Site
						{
							OFFSET 0.0 0.0 0.0
						}
					}
				}
			}
		}
		JOINT UpperLeg_R
		{
			OFFSET -2.19251 6.46944 0.0
			CHANNELS 6 Xposition Yposition Zposition Zrotation Xrotation Yrotation 
			JOINT LowerLeg_R
			{
				OFFSET -39.0811 -0.00228153 -0.0401928
				CHANNELS 6 Xposition Yposition Zposition Zrotation Xrotation Yrotation 
				JOINT Foot_R
				{
					OFFSET -40.9854 0.0 0.0
					CHANNELS 6 Xposition Yposition Zposition Zrotation Xrotation Yrotation 
					JOINT Toes_R
					{
						OFFSET -11.7543 0.0 0.0
						CHANNELS 6 Xposition Yposition Zposition Zrotation Xrotation Yrotation 
						End Site
						{
							OFFSET 0.0 0.0 0.0
						}
					}
				}
			}
		}
	}
}
MOTION
Frames:	7
Frame Time:	0.0333333
0.000000 0.000000 0.000000 0.000000 0.000000 -0.000000 -1.650280 89.819900 -0.083255 88.904600 -1.717950 11.819200 15.735700 0.000005 -0.000001 88.557200 78.501500 -88.267200 8.984550 -0.406207 -0.000000 15.225600 -0.552428 0.654303 16.377300 -0.000001 -0.000001 9.247950 -4.592420 4.526300 6.456720 -0.000001 -0.000000 -0.380645 -4.703550 9.996170 12.994200 -0.242716 4.980390 -90.761600 2.831450 -74.939200 5.348090 -0.000007 -0.000001 -60.893200 -11.305000 -60.552200 24.328600 0.000019 0.000005 37.040000 -11.900300 -105.283000 22.291600 -0.000001 0.000005 29.646800 5.114400 4.780980 12.994500 -0.242716 -4.980390 88.893200 11.811300 -84.608000 -5.348130 -0.000001 -0.000004 -56.546500 37.287800 -22.135000 -24.328900 0.000322 -0.000009 1.278380 3.638190 -19.390100 -22.291500 -0.000108 -0.000004 12.268100 5.414490 -3.414550 -2.192480 -6.469440 -0.000000 -174.063000 -9.786170 -1.338790 39.081100 -0.000007 -0.000012 -0.260935 0.358520 36.048100 40.985400 -0.000006 -0.000013 -0.013826 4.291370 -72.738900 11.754300 -0.000000 0.000003 -0.000182 -0.001713 -16.642300 -2.192510 6.469440 -0.000001 175.197000 19.370500 -179.421000 -39.081100 -0.002282 -0.040193 -0.184261 0.268733 34.911900 -40.985400 0.000008 0.000006 4.880170 9.927890 -73.554200 -11.754300 -0.000006 -0.000006 -0.002103 -0.030002 -17.793100
0.000000 0.000000 0.000000 0.000000 0.000000 -0.000000 -1.589320 89.829300 -0.196708 88.865700 -1.576810 11.914100 15.735700 0.000005 -0.000001 88.466700 78.494500 -88.171700 8.984550 -0.406207 -0.000000 15.239000 -0.588235 0.669282 16.377300 -0.000001 -0.000001 9.189420 -4.571080 4.478060 6.456720 -0.000001 -0.000000 -0.459206 -4.645910 9.972640 12.994200 -0.242716 4.980390 -90.735600 2.745670 -74.996000 5.348090 -0.000007 -0.000001 -58.625300 -9.766520 -61.352500 24.328600 0.000019 0.000005 37.984500 -12.558500 -105.560000 22.291600 -0.000001 0.000005 29.170400 5.129270 4.434580 12.994500 -0.242716 -4.980390 88.901800 11.818600 -84.652900 -5.348130 -0.000001 -0.000004 -56.536900 37.320800 -22.189300 -24.328900 0.000322 -0.000009 1.294280 3.690390 -19.356500 -22.291500 -0.000108 -0.000004 12.182800 5.414640 -3.419330 -2.192480 -6.469440 -0.000000 -174.070000 -9.739410 -1.366230 39.081100 -0.000007 -0.000012 -0.259428 0.356017 36.081200 40.985400 -0.000006 -0.000013 0.073834 4.386160 -72.668100 11.754300 -0.000000 0.000003 -0.000186 -0.001742 -16.643400 -2.192510 6.469440 -0.000001 175.111000 19.509400 -179.340000 -39.081100 -0.002282 -0.040193 -0.194004 0.283373 34.847300 -40.985400 0.000008 0.000006 4.602720 10.044700 -73.395400 -11.754300 -0.000006 -0.000006 -0.002335 -0.032834 -17.908300
0.000000 0.000000 0.000000 0.000000 0.000000 -0.000000 -1.528490 89.842700 -0.316109 88.851900 -1.534740 12.000300 15.735700 0.000005 -0.000001 88.444200 78.478800 -88.154200 8.984550 -0.406207 -0.000000 15.270100 -0.598221 0.660576 16.377300 -0.000001 -0.000001 9.106880 -4.559480 4.429380 6.456720 -0.000001 -0.000000 -0.512269 -4.608090 9.962270 12.994200 -0.242716 4.980390 -90.708200 2.649900 -75.031300 5.348090 -0.000007 -0.000001 -56.571500 -8.373130 -62.158800 24.328600 0.000019 0.000005 37.996700 -12.949400 -106.006000 22.291600 -0.000001 0.000005 28.998000 5.147090 4.012560 12.994500 -0.242716 -4.980390 88.909600 11.814000 -84.688700 -5.348130 -0.000001 -0.000004 -56.532500 37.348100 -22.246000 -24.328900 0.000322 -0.000009 1.297040 3.693640 -19.379000 -22.291500 -0.000108 -0.000004 12.221600 5.414440 -3.412780 -2.192480 -6.469440 -0.000000 -174.097000 -9.767140 -1.372410 39.081100 -0.000007 -0.000012 -0.253300 0.347614 36.080600 40.985400 -0.000006 -0.000013 0.143615 4.422750 -72.584800 11.754300 -0.000000 0.000003 -0.000187 -0.001751 -16.643700 -2.192510 6.469440 -0.000001 175.065000 19.534700 -179.321000 -39.081100 -0.002282 -0.040193 -0.200842 0.293583 34.811700 -40.985400 0.000008 0.000006 4.476070 10.082300 -73.258700 -11.754300 -0.000006 -0.000006 -0.002210 -0.031317 -17.846500
0.000000 0.000000 0.000000 0.000000 0.000000 -0.000000 -1.465380 89.854600 -0.450739 88.839600 -1.558540 12.020400 15.735700 0.000005 -0.000001 88.458200 78.478500 -88.172300 8.984550 -0.406207 -0.000000 15.270800 -0.592958 0.651808 16.377300 -0.000001 -0.000001 9.087020 -4.525880 4.369890 6.456720 -0.000001 -0.000000 -0.598528 -4.608840 10.033600 12.994200 -0.242716 4.980390 -90.699700 2.613960 -75.009800 5.348090 -0.000007 -0.000001 -54.597400 -7.116800 -63.015200 24.328600 0.000019 0.000005 37.918400 -13.264500 -106.412000 22.291600 -0.000001 0.000005 28.998400 5.144480 4.074840 12.994500 -0.242716 -4.980390 88.908200 11.837500 -84.692200 -5.348130 -0.000001 -0.000004 -56.519400 37.327000 -22.263100 -24.328900 0.000322 -0.000009 1.291420 3.659430 -19.468100 -22.291500 -0.000108 -0.000004 12.229700 5.415120 -3.435330 -2.192480 -6.469440 -0.000000 -174.116000 -9.836640 -1.444000 39.081100 -0.000007 -0.000012 -0.254202 0.348794 36.085200 40.985400 -0.000006 -0.000013 0.202075 4.451540 -72.501700 11.754300 -0.000000 0.000003 -0.000194 -0.001805 -16.645700 -2.192510 6.469440 -0.000001 175.017000 19.588500 -179.385000 -39.081100 -0.002282 -0.040193 -0.210018 0.307037 34.789200 -40.985400 0.000008 0.000006 4.360060 10.224700 -73.119100 -11.754300 -0.000006 -0.000006 -0.002300 -0.032412 -17.891100
0.000000 0.000000 0.000000 0.000000 0.000000 -0.000000 -1.406950 89.872200 -0.577871 88.843100 -1.619310 12.066100 15.735700 0.000005 -0.000001 88.427500 78.468300 -88.157300 8.984550 -0.406207 -0.000000 15.290900 -0.606613 0.622323 16.377300 -0.000001 -0.000001 9.096040 -4.507960 4.357130 6.456720 -0.000001 -0.000000 -0.621764 -4.612900 10.104400 12.994200 -0.242716 4.980390 -90.673700 2.516810 -75.009400 5.348090 -0.000007 -0.000001 -52.968400 -6.118180 -63.726500 24.328600 0.000019 0.000005 37.878200 -13.605700 -106.826000 22.291600 -0.000001 0.000005 28.696800 5.160230 3.697250 12.994500 -0.242716 -4.980390 88.914900 11.844500 -84.727500 -5.348130 -0.000001 -0.000004 -56.533600 37.343400 -22.276200 -24.328900 0.000322 -0.000009 1.267630 3.577860 -19.538800 -22.291500 -0.000108 -0.000004 12.302400 5.414600 -3.417970 -2.192480 -6.469440 -0.000000 -174.169000 -9.858840 -1.469000 39.081100 -0.000007 -0.000012 -0.251487 0.345475 36.053000 40.985400 -0.000006 -0.000013 0.231841 4.385350 -72.403600 11.754300 -0.000000 0.000003 -0.000176 -0.001666 -16.640600 -2.192510 6.469440 -0.000001 174.970000 19.610300 -179.425000 -39.081100 -0.002282 -0.040193 -0.213126 0.311870 34.758300 -40.985400 0.000008 0.000006 4.319940 10.338900 -72.989900 -11.754300 -0.000006 -0.000006 -0.002198 -0.031171 -17.840600
0.000000 0.000000 0.000000 0.000000 0.000000 -0.000000 -1.345410 89.882300 -0.696746 88.836300 -1.759650 12.105800 15.735700 0.000005 -0.000001 88.462800 78.455000 -88.198900 8.984550 -0.406207 -0.000000 15.317700 -0.593635 0.608016 16.377300 -0.000001 -0.000001 9.136730 -4.506500 4.348620 6.456720 -0.000001 -0.000000 -0.642314 -4.613880 10.140700 12.994200 -0.242716 4.980390 -90.668900 2.493420 -74.978700 5.348090 -0.000007 -0.000001 -51.434400 -5.320620 -64.390800 24.328600 0.000019 0.000005 38.565300 -14.046700 -106.931000 22.291600 -0.000001 0.000005 28.608100 5.168560 3.495330 12.994500 -0.242716 -4.980390 88.919200 11.837100 -84.745200 -5.348130 -0.000001 -0.000004 -56.524800 37.372500 -22.326400 -24.328900 0.000322 -0.000009 1.270470 3.587280 -19.531800 -22.291500 -0.000108 -0.000004 12.280600 5.415220 -3.438720 -2.192480 -6.469440 -0.000000 -174.190000 -10.009200 -1.499850 39.081100 -0.000007 -0.000012 -0.245210 0.336792 36.057900 40.985400 -0.000006 -0.000013 0.282105 4.353250 -72.333000 11.754300 -0.000000 0.000003 -0.000169 -0.001606 -16.638400 -2.192510 6.469440 -0.000001 174.936000 19.560000 -179.483000 -39.081100 -0.002282 -0.040193 -0.221306 0.323950 34.734300 -40.985400 0.000008 0.000006 4.121480 10.478700 -72.826400 -11.754300 -0.000006 -0.000006 -0.002286 -0.032246 -17.884300
0.000000 0.000000 0.000000 0.000000 0.000000 -0.000000 -1.288210 89.893800 -0.806677 88.809100 -1.908960 12.194600 15.735700 0.000005 -0.000001 88.461200 78.422100 -88.192000 8.984550 -0.406207 -0.000000 15.383600 -0.595466 0.619286 16.377300 -0.000001 -0.000001 9.155480 -4.512570 4.321340 6.456720 -0.000001 -0.000000 -0.631165 -4.644300 10.164000 12.994200 -0.242716 4.980390 -90.655400 2.436530 -74.939700 5.348090 -0.000007 -0.000001 -50.285600 -4.733670 -64.922500 24.328600 0.000019 0.000005 38.456900 -14.127700 -107.084000 22.291600 -0.000001 0.000005 28.570700 5.187790 3.023640 12.994500 -0.242716 -4.980390 88.917600 11.833100 -84.736000 -5.348130 -0.000001 -0.000004 -56.507400 37.409500 -22.362700 -24.328900 0.000322 -0.000009 1.271480 3.588090 -19.542100 -22.291500 -0.000108 -0.000004 12.267800 5.415240 -3.439380 -2.192480 -6.469440 -0.000000 -174.183000 -10.079500 -1.468800 39.081100 -0.000007 -0.000012 -0.242518 0.333121 36.055700 40.985400 -0.000006 -0.000013 0.305530 4.286220 -72.269000 11.754300 -0.000000 0.000003 -0.000188 -0.001756 -16.643900 -2.192510 6.469440 -0.000001 174.911000 19.530200 -179.465000 -39.081100 -0.002282 -0.040193 -0.222625 0.326315 34.696200 -40.985400 0.000008 0.000006 4.034900 10.639800 -72.694400 -11.754300 -0.000006 -0.000006 -0.002145 -0.030518 -17.814100
